<?xml version="1.0" standalone="no"?>
<!DOCTYPE svg PUBLIC "-//W3C//DTD SVG 20010904//EN"
 "http://www.w3.org/TR/2001/REC-SVG-20010904/DTD/svg10.dtd">
<svg version="1.0" xmlns="http://www.w3.org/2000/svg"
 width="249.000000pt" height="231.000000pt" viewBox="0 0 249.000000 231.000000"
 preserveAspectRatio="xMidYMid meet">
<metadata>
Created by potrace 1.16, written by Peter Selinger 2001-2019
</metadata>
<g transform="translate(0.000000,231.000000) scale(0.100000,-0.100000)"
fill="#000000" stroke="none">
<path d="M120 1190 l0 -880 100 0 100 0 0 35 0 35 -65 0 -65 0 0 810 0 810 65
0 65 0 0 35 0 35 -100 0 -100 0 0 -880z"/>
<path d="M2180 2035 l0 -35 65 0 65 0 0 -810 0 -810 -65 0 -65 0 0 -35 0 -35
100 0 100 0 0 880 0 880 -100 0 -100 0 0 -35z"/>
<path d="M1891 1738 c-6 -29 -42 -224 -81 -433 -82 -438 -95 -492 -121 -521
-10 -11 -19 -28 -19 -37 0 -15 12 -17 80 -17 71 0 80 2 80 18 0 11 -9 27 -20
37 -24 22 -27 104 -9 216 l12 69 92 0 92 0 11 -77 c20 -127 16 -180 -13 -209
-46 -45 -35 -54 65 -54 82 0 90 2 90 19 0 11 -5 23 -11 27 -30 18 -38 61 -144
762 -19 128 -35 237 -35 242 0 6 -13 10 -29 10 -28 0 -30 -4 -40 -52z m58
-333 c17 -121 34 -230 36 -242 5 -22 3 -23 -75 -23 -65 0 -80 3 -80 15 0 32
80 478 85 473 1 -2 17 -102 34 -223z"/>
<path d="M390 1764 c0 -9 9 -27 20 -41 19 -25 20 -41 20 -468 0 -427 -1 -443
-20 -468 -43 -55 -37 -57 155 -57 l175 0 0 135 c0 113 -2 135 -15 135 -8 0
-15 -2 -15 -4 0 -2 -7 -39 -15 -82 -20 -105 -30 -114 -122 -114 l-73 0 0 220
0 221 57 -3 58 -3 14 -52 c8 -31 20 -53 27 -53 11 0 14 30 14 150 0 121 -3
150 -14 150 -8 0 -19 -22 -27 -57 l-14 -58 -57 -3 -58 -3 0 201 0 200 73 0
c89 0 101 -9 120 -96 9 -40 19 -60 30 -62 15 -3 17 10 17 112 l0 116 -175 0
c-153 0 -175 -2 -175 -16z"/>
<path d="M840 1764 c0 -9 9 -27 20 -41 19 -25 20 -41 20 -468 0 -427 -1 -443
-20 -468 -43 -54 -36 -57 150 -57 l170 0 0 155 c0 127 -3 155 -14 155 -9 0
-17 -16 -21 -42 -29 -188 -35 -198 -130 -198 l-66 0 3 454 c3 416 4 456 21
473 9 11 17 27 17 36 0 14 -12 17 -75 17 -62 0 -75 -3 -75 -16z"/>
<path d="M1250 1765 c0 -9 9 -28 20 -42 19 -25 20 -41 20 -468 0 -427 -1 -443
-20 -468 -41 -51 -31 -57 93 -57 136 0 188 19 224 85 43 77 54 241 23 349 -7
21 -29 57 -50 80 l-38 41 33 37 c49 53 68 128 63 247 -4 106 -20 146 -71 185
-25 18 -45 21 -163 24 -121 4 -134 2 -134 -13z m253 -80 c67 -68 59 -286 -14
-354 -17 -16 -35 -21 -76 -21 l-53 0 0 200 0 200 59 0 c49 0 62 -4 84 -25z
m-5 -470 c38 -32 56 -98 55 -200 -1 -157 -39 -215 -139 -215 l-54 0 0 220 0
220 54 0 c43 0 60 -5 84 -25z"/>
</g>
</svg>
